<svg width="18" height="18" viewBox="0 0 18 18" fill="none" xmlns="http://www.w3.org/2000/svg">
<path fill-rule="evenodd" clip-rule="evenodd" d="M15 9.75H11.25C10.4216 9.75 9.75 10.4216 9.75 11.25V15C9.75 15.8284 10.4216 16.5 11.25 16.5H15C15.8284 16.5 16.5 15.8284 16.5 15V11.25C16.5 10.4216 15.8284 9.75 15 9.75ZM11.25 15V11.25H15V15H11.25ZM8.25 3V15C8.25 15.8284 7.57843 16.5 6.75 16.5H3C2.17157 16.5 1.5 15.8284 1.5 15V3C1.5 2.17157 2.17157 1.5 3 1.5H6.75C7.57843 1.5 8.25 2.17157 8.25 3ZM6.75 3H3V15H6.75V3ZM15 1.5H11.25C10.4216 1.5 9.75 2.17157 9.75 3V6.75C9.75 7.57843 10.4216 8.25 11.25 8.25H15C15.8284 8.25 16.5 7.57843 16.5 6.75V3C16.5 2.17157 15.8284 1.5 15 1.5ZM11.25 6.75V3H15V6.75H11.25Z" fill="#5162FC"/>
</svg>
