<svg width="36" height="36" viewBox="0 0 36 36" fill="none" xmlns="http://www.w3.org/2000/svg">
<path fill-rule="evenodd" clip-rule="evenodd" d="M24.656 3C25.6381 3 26.5796 3.39213 27.2672 4.08513L31.9185 8.73648C32.611 9.429 33.0001 10.3683 33.0001 11.3476C33.0001 12.327 32.611 13.2662 31.9185 13.9588L14.9363 30.9356C13.8885 32.1442 12.4033 32.8868 10.7019 33.0035H3V31.5035L3.00487 25.181C3.13266 23.5993 3.868 22.1285 4.98974 21.1401L22.0431 4.08694C22.7346 3.39124 23.675 3 24.656 3ZM10.596 30.0072C11.3973 29.9505 12.1432 29.5776 12.7422 28.8924L24.085 17.5496L18.4535 11.9178L7.04415 23.3244C6.43643 23.8619 6.06046 24.6138 6 25.3017V30.0044L10.596 30.0072ZM20.5751 9.79673L26.2064 15.4283L29.7972 11.8374C29.9271 11.7075 30.0001 11.5313 30.0001 11.3476C30.0001 11.1639 29.9271 10.9877 29.7972 10.8578L25.1417 6.20228C25.0132 6.07282 24.8384 6 24.656 6C24.4736 6 24.2988 6.07282 24.1704 6.20228L20.5751 9.79673Z" fill="#1A191D"/>
</svg>
