<svg width="18" height="18" viewBox="0 0 18 18" fill="none" xmlns="http://www.w3.org/2000/svg">
<path fill-rule="evenodd" clip-rule="evenodd" d="M7.51293 15.0027C7.51682 15.0949 7.50688 15.1848 7.48748 15.2758C7.45339 15.4357 7.38755 15.6049 7.29436 15.7612C7.02944 16.2056 6.57941 16.5022 6 16.5022C4.63507 16.5022 4.09938 15.8326 3.42864 14.1557C2.97438 13.0201 2.76007 12.7522 2.25 12.7522L2.25 11.2522C3.61493 11.2522 4.15062 11.9218 4.82136 13.5987C5.27562 14.7343 5.48993 15.0022 6 15.0022C6 14.7846 5.99702 14.5918 5.99075 14.3307C5.97605 13.7189 5.97436 13.594 6.00105 13.4304C6.01172 13.0734 6.1039 12.82 6.28875 12.5685C4.61489 12.2042 3.48594 11.4516 2.83798 10.2311L2.59525 9.66023C2.35878 8.98065 2.25 8.21065 2.25 7.32137C2.25 6.2972 2.56226 5.38147 3.14551 4.616C2.96357 3.88839 2.98849 2.99942 3.39023 1.99545L3.5215 1.6674L3.85805 1.55974C3.90311 1.54533 3.95789 1.53231 4.02224 1.52221C4.67757 1.41936 5.61008 1.66476 6.82916 2.44563C7.54783 2.27904 8.30464 2.19493 9.06658 2.19493C9.74747 2.19493 10.4246 2.26357 11.0712 2.3989C12.2573 1.65615 13.1642 1.4232 13.8019 1.52235C13.8655 1.53224 13.9197 1.545 13.9644 1.55918L14.303 1.66656L14.4345 1.99662C14.7859 2.87917 14.8462 3.69252 14.7184 4.40422C15.3889 5.20875 15.75 6.19784 15.75 7.32137C15.75 8.26857 15.6821 8.98082 15.4871 9.67372L15.2812 10.2387C14.7422 11.458 13.5536 12.219 11.7206 12.5814C11.9112 12.8452 12 13.113 12 13.5022V14.2522C12 14.6156 12 14.6268 11.9992 15.0022C12.0009 15.0292 12.0031 15.0424 12.0056 15.0506C12.005 15.0508 12 16.5022 12 16.5022C11.3612 16.5022 10.8862 16.1906 10.6525 15.6992C10.5314 15.4444 10.4952 15.2011 10.5 14.9915V13.5022C10.5 13.4393 10.4978 13.4357 10.3447 13.2825C9.93532 12.8732 9.75 12.5643 9.75 12.0022V11.3237L10.4251 11.256C12.4345 11.0541 13.5274 10.4961 13.8898 9.68088L14.0591 9.21795C14.1938 8.73392 14.25 8.14444 14.25 7.32137C14.25 6.4468 13.9447 5.72435 13.3672 5.14714L13.0499 4.82988L13.1794 4.40022C13.2945 4.01851 13.3218 3.56684 13.2001 3.05167C13.1798 3.0568 13.1588 3.06239 13.137 3.06846C12.7354 3.18026 12.234 3.42016 11.6298 3.82402L11.3543 4.00822L11.0325 3.92844C10.4103 3.77415 9.74164 3.69493 9.06658 3.69493C8.3159 3.69493 7.57385 3.79044 6.88834 3.97732L6.5538 4.06853L6.26761 3.87274C5.64272 3.44526 5.12359 3.19103 4.70732 3.07227C4.67759 3.06379 4.64928 3.05621 4.62237 3.04944C4.47714 3.64568 4.53458 4.13554 4.68167 4.50312L4.85804 4.94386L4.53516 5.29186C4.02067 5.8464 3.75 6.52123 3.75 7.32137C3.75 8.05394 3.83576 8.66096 3.99291 9.11822L4.18918 9.58279C4.6798 10.5034 5.7219 11.0573 7.57993 11.2565L8.25 11.3283V12.0022C8.25 12.5643 8.06468 12.8732 7.65533 13.2825C7.50218 13.4357 7.5 13.4393 7.5 13.5022L7.48707 13.6408C7.47852 13.6863 7.47852 13.8037 7.49031 14.2947C7.49574 14.5205 7.49883 14.6993 7.49973 14.886C7.50869 14.9247 7.51004 14.9496 7.51293 15.0027Z" fill="#B0B9D3"/>
</svg>
