<svg width="16" height="14" viewBox="0 0 16 14" fill="none" xmlns="http://www.w3.org/2000/svg">
<path fill-rule="evenodd" clip-rule="evenodd" d="M11.0355 0.333385C10.0704 0.333374 9.44828 0.44835 8.73512 0.797422C8.47109 0.926661 8.22338 1.0823 7.99333 1.26388C7.77215 1.09248 7.53434 0.943986 7.28123 0.818797C6.55423 0.459224 5.90021 0.333374 4.96972 0.333374C2.47764 0.333374 0.666687 2.39822 0.666687 5.07996C0.666687 7.10521 1.79591 9.06156 3.89925 10.9533C5.00328 11.9463 6.4129 12.9289 7.42242 13.4517L8.00002 13.7508L8.57762 13.4517C9.58714 12.9289 10.9968 11.9463 12.1008 10.9533C14.2041 9.06156 15.3334 7.10521 15.3334 5.07996C15.3334 2.4266 13.5053 0.343613 11.0355 0.333385ZM14 5.07996C14 6.66664 13.0575 8.29958 11.2092 9.96195C10.2015 10.8683 8.906 11.774 8.00002 12.2492C7.09405 11.774 5.79857 10.8683 4.79087 9.96195C2.94257 8.29958 2.00002 6.66664 2.00002 5.07996C2.00002 3.09852 3.25578 1.66671 4.96972 1.66671C5.70954 1.66671 6.16544 1.75443 6.69011 2.01394C7.00002 2.16722 7.27394 2.36962 7.51104 2.62255L8.00158 3.14584L8.48765 2.61841C8.73009 2.35534 9.00803 2.14833 9.3213 1.99499C9.8306 1.7457 10.258 1.66671 11.0327 1.66671C12.7255 1.67373 14 3.12602 14 5.07996Z" fill="#5162FC"/>
</svg>
