<svg width="18" height="18" viewBox="0 0 18 18" fill="none" xmlns="http://www.w3.org/2000/svg">
<path fill-rule="evenodd" clip-rule="evenodd" d="M12 1.5H6C3.51472 1.5 1.5 3.51472 1.5 6V12C1.5 14.4853 3.51472 16.5 6 16.5H12C14.4853 16.5 16.5 14.4853 16.5 12V6C16.5 3.51472 14.4853 1.5 12 1.5ZM3 6C3 4.34315 4.34315 3 6 3H12C13.6569 3 15 4.34315 15 6V12C15 13.6569 13.6569 15 12 15H6C4.34315 15 3 13.6569 3 12V6ZM9 12.75C6.92893 12.75 5.25 11.0711 5.25 9C5.25 6.92893 6.92893 5.25 9 5.25C11.0711 5.25 12.75 6.92893 12.75 9C12.75 11.0711 11.0711 12.75 9 12.75ZM9 11.25C10.2426 11.25 11.25 10.2426 11.25 9C11.25 7.75736 10.2426 6.75 9 6.75C7.75736 6.75 6.75 7.75736 6.75 9C6.75 10.2426 7.75736 11.25 9 11.25ZM13.5 5.25C13.5 5.66421 13.1642 6 12.75 6C12.3358 6 12 5.66421 12 5.25C12 4.83579 12.3358 4.5 12.75 4.5C13.1642 4.5 13.5 4.83579 13.5 5.25Z" fill="#5162FC"/>
</svg>
