<svg width="32" height="32" viewBox="0 0 32 32" fill="none" xmlns="http://www.w3.org/2000/svg">
<path fill-rule="evenodd" clip-rule="evenodd" d="M2.66666 8.00004C2.66666 9.4728 3.86056 10.6667 5.33332 10.6667C6.80608 10.6667 7.99999 9.4728 7.99999 8.00004C7.99999 6.52728 6.80608 5.33337 5.33332 5.33337C3.86056 5.33337 2.66666 6.52728 2.66666 8.00004ZM29.3333 6.66671V9.33337H10.6667V6.66671H29.3333ZM29.3333 17.3334V14.6667H10.6667V17.3334H29.3333ZM10.6667 25.3334H29.3333V22.6667H10.6667V25.3334ZM2.66666 24C2.66666 25.4728 3.86056 26.6667 5.33332 26.6667C6.80608 26.6667 7.99999 25.4728 7.99999 24C7.99999 22.5273 6.80608 21.3334 5.33332 21.3334C3.86056 21.3334 2.66666 22.5273 2.66666 24ZM5.33332 18.6667C3.86056 18.6667 2.66666 17.4728 2.66666 16C2.66666 14.5273 3.86056 13.3334 5.33332 13.3334C6.80608 13.3334 7.99999 14.5273 7.99999 16C7.99999 17.4728 6.80608 18.6667 5.33332 18.6667Z" fill="#B0B9D3"/>
</svg>
