<svg width="18" height="18" viewBox="0 0 18 18" fill="none" xmlns="http://www.w3.org/2000/svg">
<path fill-rule="evenodd" clip-rule="evenodd" d="M6.75 1.5H5.25C4.42157 1.5 3.75 2.17157 3.75 3V15C3.75 15.8284 4.42157 16.5 5.25 16.5H6.75C7.57843 16.5 8.25 15.8284 8.25 15V3C8.25 2.17157 7.57843 1.5 6.75 1.5ZM12.75 1.5H11.25C10.4216 1.5 9.75 2.17157 9.75 3V15C9.75 15.8284 10.4216 16.5 11.25 16.5H12.75C13.5784 16.5 14.25 15.8284 14.25 15V3C14.25 2.17157 13.5784 1.5 12.75 1.5ZM5.25 3V15H6.75V3H5.25ZM11.25 15V3H12.75V15H11.25Z" fill="#5162FC"/>
</svg>
