<svg width="28" height="28" viewBox="0 0 28 28" fill="none" xmlns="http://www.w3.org/2000/svg">
<path fill-rule="evenodd" clip-rule="evenodd" d="M23.1112 11.9669C24.2196 10.775 24.7253 9.74262 24.4401 9.13109C24.1548 8.51928 23.0381 8.24314 21.4114 8.32635C22.2225 9.38428 22.8122 10.6209 23.1112 11.9669ZM19.1732 6.23033C17.6925 5.2425 15.9135 4.66667 14 4.66667C9.19428 4.66667 5.23689 8.29873 4.72311 12.9676C1.92284 15.3692 0.52795 17.8936 1.44258 19.855C2.35711 21.8163 5.18708 22.3705 8.8263 21.7693C10.3071 22.7574 12.0863 23.3333 14 23.3333C18.8065 23.3333 22.7645 19.7 23.2771 15.03C26.0755 12.6291 27.4692 10.1057 26.5549 8.14498C25.6405 6.18411 22.8114 5.62976 19.1732 6.23033ZM9.39347 19.2708C7.92652 17.9877 6.99999 16.102 6.99999 14C6.99999 10.134 10.134 7 14 7C17.8188 7 20.9233 10.0579 20.9986 13.8586C19.5154 15.0023 17.6311 16.168 15.4779 17.1721C13.3256 18.1757 11.2224 18.8697 9.39347 19.2708ZM12.5318 20.8458C13.8087 20.4306 15.1311 19.9083 16.464 19.2868C17.7978 18.6648 19.0487 17.9871 20.1881 17.2752C19.0129 19.4909 16.6827 21 14 21C13.4964 21 13.0052 20.9468 12.5318 20.8458ZM6.58843 19.6735C4.96047 19.7571 3.84272 19.481 3.55729 18.8689C3.27195 18.257 3.77849 17.2237 4.88824 16.0309C5.1871 17.3777 5.77695 18.615 6.58843 19.6735Z" fill="#B0B9D3"/>
</svg>
