<svg width="32" height="32" viewBox="0 0 32 32" fill="none" xmlns="http://www.w3.org/2000/svg">
<path fill-rule="evenodd" clip-rule="evenodd" d="M26.4129 13.6764C27.6796 12.3142 28.2575 11.1344 27.9316 10.4355C27.6056 9.73629 26.3293 9.4207 24.4703 9.5158C25.3972 10.7249 26.0712 12.1381 26.4129 13.6764ZM21.9122 7.12034C20.22 5.9914 18.1869 5.33331 16 5.33331C10.5078 5.33331 5.98507 9.48424 5.39789 14.82C2.19758 17.5648 0.603424 20.4498 1.64871 22.6914C2.69389 24.9328 5.92815 25.5662 10.0872 24.8792C11.7796 26.0084 13.8129 26.6666 16 26.6666C21.4932 26.6666 26.0166 22.5143 26.6025 17.1771C29.8006 14.4333 31.3934 11.5494 30.3485 9.30852C29.3035 7.06753 26.0702 6.43398 21.9122 7.12034ZM10.7354 22.0238C9.05893 20.5573 8.00004 18.4023 8.00004 16C8.00004 11.5817 11.5818 7.99998 16 7.99998C20.3643 7.99998 23.9124 11.4947 23.9984 15.8384C22.3034 17.1455 20.1499 18.4777 17.6891 19.6252C15.2294 20.7722 12.8256 21.5654 10.7354 22.0238ZM14.3221 23.8237C15.7814 23.3493 17.2927 22.7524 18.816 22.042C20.3404 21.3312 21.7699 20.5567 23.0721 19.7431C21.7291 22.2752 19.066 24 16 24C15.4245 24 14.8632 23.9392 14.3221 23.8237ZM7.52968 22.484C5.66916 22.5796 4.39174 22.264 4.06553 21.5644C3.73943 20.8651 4.31833 19.6843 5.58661 18.321C5.92816 19.8602 6.60227 21.2743 7.52968 22.484Z" fill="white"/>
</svg>
