<svg width="24" height="24" viewBox="0 0 24 24" fill="none" xmlns="http://www.w3.org/2000/svg">
<path fill-rule="evenodd" clip-rule="evenodd" d="M9.19258 8.00001H20C21.1046 8.00001 22 8.89544 22 10V20C22 21.1046 21.1046 22 20 22H4C2.89543 22 2 21.1046 2 20V10C2 8.97097 2.77716 8.12344 3.77657 8.01235L18.6286 2.07153L19.3714 3.92849L9.19258 8.00001ZM4 10V20H20V10H4ZM19 15H14V17H19V15ZM14 12H19V14H14V12ZM5 15C5 17.2091 6.79086 19 9 19C11.2091 19 13 17.2091 13 15C13 12.7909 11.2091 11 9 11C6.79086 11 5 12.7909 5 15ZM9 17C10.1046 17 11 16.1046 11 15C11 13.8954 10.1046 13 9 13C7.89543 13 7 13.8954 7 15C7 16.1046 7.89543 17 9 17ZM8 15C8 15.5523 8.44772 16 9 16C9.55228 16 10 15.5523 10 15C10 14.4477 9.55228 14 9 14C8.44772 14 8 14.4477 8 15Z" fill="#B0B9D3"/>
</svg>
