<svg width="28" height="28" viewBox="0 0 28 28" fill="none" xmlns="http://www.w3.org/2000/svg">
<path fill-rule="evenodd" clip-rule="evenodd" d="M24.5 20.0649V7.9405L14 1.87833L3.5 7.9405V20.0649L14 26.127L24.5 20.0649ZM5.83333 9.28765L14 4.57263L22.1667 9.28765V18.7177L14 23.4327L5.83333 18.7177V9.28765ZM14 19.8333C10.7783 19.8333 8.16667 17.2217 8.16667 14C8.16667 10.7783 10.7783 8.16666 14 8.16666C17.2217 8.16666 19.8333 10.7783 19.8333 14C19.8333 17.2217 17.2217 19.8333 14 19.8333ZM17.5 14C17.5 15.933 15.933 17.5 14 17.5C12.067 17.5 10.5 15.933 10.5 14C10.5 12.067 12.067 10.5 14 10.5C15.933 10.5 17.5 12.067 17.5 14Z" fill="#B0B9D3"/>
</svg>
