<svg width="18" height="18" viewBox="0 0 18 18" fill="none" xmlns="http://www.w3.org/2000/svg">
<path fill-rule="evenodd" clip-rule="evenodd" d="M9 4.96367L6 6.46367V11.5366L9 13.0366V4.96367ZM10.5 2.53662L5.07294 5.25015H2.25C1.42157 5.25015 0.75 5.92172 0.75 6.75015V11.2501C0.75 12.0786 1.42157 12.7501 2.25 12.7501H5.07295L10.5 15.4637V2.53662ZM2.25 6.75015H4.5V11.2501H2.25V6.75015ZM14.25 9.00015C14.25 7.19215 13.5487 5.55943 12.4311 4.4553L11.2479 5.40179C12.1554 6.21893 12.75 7.5194 12.75 9.00015C12.75 10.4809 12.1554 11.7814 11.2479 12.5985L12.4311 13.545C13.5487 12.4409 14.25 10.8081 14.25 9.00015Z" fill="#5162FC"/>
</svg>
