<svg width="18" height="18" viewBox="0 0 18 18" fill="none" xmlns="http://www.w3.org/2000/svg">
<path fill-rule="evenodd" clip-rule="evenodd" d="M6 6.46367L9 4.96367V13.0366L6 11.5366V6.46367ZM5.07294 5.25015L10.5 2.53662V15.4637L5.07295 12.7501H2.25C1.42157 12.7501 0.75 12.0786 0.75 11.2501V6.75015C0.75 5.92172 1.42157 5.25015 2.25 5.25015H5.07294ZM4.5 6.75015H2.25V11.2501H4.5V6.75015ZM14.7593 2.59269C16.2852 4.11071 17.25 6.42622 17.25 9.00015C17.25 11.5741 16.2852 13.8896 14.7593 15.4076L13.5774 14.462C14.8866 13.2404 15.75 11.2593 15.75 9.00015C15.75 6.74102 14.8866 4.75992 13.5774 3.53826L14.7593 2.59269ZM14.25 9.00015C14.25 7.19215 13.5487 5.55943 12.4311 4.4553L11.2479 5.40179C12.1554 6.21893 12.75 7.5194 12.75 9.00015C12.75 10.4809 12.1554 11.7814 11.2479 12.5985L12.4311 13.545C13.5487 12.4409 14.25 10.8081 14.25 9.00015Z" fill="#5162FC"/>
</svg>
