<svg width="32" height="32" viewBox="0 0 32 32" fill="none" xmlns="http://www.w3.org/2000/svg">
<path fill-rule="evenodd" clip-rule="evenodd" d="M28.1593 6.01105L30.0457 6.23135L29.1977 7.93069C28.7842 8.75939 28.3703 9.58809 27.956 10.4168C27.9069 10.5923 27.8205 10.7462 27.6928 10.9465C27.6395 11.0302 27.4572 11.2965 27.4487 11.3093C27.4005 11.3815 27.3649 11.4384 27.3393 11.484V14.6687C27.3393 22.818 19.4527 27.9966 12.0047 27.9966C10.4806 27.9966 9.32272 27.9236 7.99682 27.6342C5.81483 27.1581 4.19099 26.2116 3.44792 24.5573L2.68291 22.8543L4.54208 22.6833C6.22397 22.5286 7.68221 22.2082 8.80207 21.7791C5.72765 21.2847 4.00476 19.9344 4.00476 17.3985V16.0652H5.33809C5.63104 16.0652 5.89519 16.0414 6.13135 15.9978C3.82396 14.6182 2.66825 12.4051 2.66825 9.33538C2.668 9.20455 2.668 9.20455 2.66722 9.06465C2.65855 7.51739 2.74166 6.69064 3.16522 5.63548C3.43668 4.95923 3.82907 4.3332 4.35716 3.75958L5.36331 2.66669L6.34153 3.78464C9.56521 7.46883 12.7519 9.70396 16.0055 9.97431C16.0194 6.57475 18.5887 4.00205 22.0057 4.00205C23.5987 4.00205 25.0437 4.60671 26.1793 5.69699C26.8008 5.8247 27.4608 5.92948 28.1593 6.01105ZM25.2115 8.21604L24.8027 8.12349L24.5204 7.81372C23.8379 7.06475 22.9812 6.66872 22.0057 6.66872C20.0551 6.66872 18.6721 8.05856 18.6721 10.0021C18.6721 10.3197 18.6639 10.5192 18.6244 10.7816C18.4665 11.8282 17.8794 12.6687 16.6721 12.6687C12.6747 12.6687 9.06844 10.5272 5.55182 6.86973C5.37053 7.42083 5.32789 7.98732 5.33385 9.04971C5.33465 9.1918 5.33465 9.1918 5.33493 9.33538C5.33493 12.0661 6.44121 13.5597 9.06058 14.3923L9.99004 14.6877V15.663C9.99004 16.8456 8.86959 17.9589 7.23021 18.4575C7.98171 19.0277 9.51863 19.3354 12.0052 19.3354H13.3385V20.6687C13.3385 22.579 11.1435 24.0748 7.82763 24.8558C8.909 25.1871 10.3488 25.3299 12.0047 25.3299C18.1572 25.3299 24.6726 21.0518 24.6726 14.6687V11.3354C24.6726 10.9437 24.7862 10.6037 24.9748 10.2501C25.0486 10.1119 25.1298 9.98015 25.23 9.82985C25.2489 9.80156 25.3189 9.69904 25.3745 9.61708L25.4801 9.40574C25.6514 9.06329 25.8225 8.72083 25.9936 8.37838C25.7277 8.32801 25.467 8.2739 25.2115 8.21604Z" fill="white"/>
</svg>
