<svg width="32" height="32" viewBox="0 0 32 32" fill="none" xmlns="http://www.w3.org/2000/svg">
<path fill-rule="evenodd" clip-rule="evenodd" d="M29.3664 24.1709C30.2774 22.6095 30.6667 20.0918 30.6667 15.9962C30.6667 11.917 30.2811 9.41396 29.3603 7.81069C28.4375 6.1458 27.3431 5.61736 25.1711 5.49051C23.6883 5.39001 20.0031 5.33331 16.0036 5.33331C11.9955 5.33331 8.30863 5.38999 6.81471 5.4913C4.65486 5.61766 3.56019 6.14727 2.62928 7.81678C1.72189 9.41452 1.33337 11.9298 1.33337 16.0112C1.33337 20.0694 1.72377 22.5973 2.63726 24.1898C3.55606 25.8378 4.63328 26.3611 6.81151 26.514C8.37705 26.6057 12.2726 26.6666 16.0036 26.6666C19.7262 26.6666 23.6199 26.6056 25.1711 26.515C27.3694 26.3611 28.4464 25.837 29.3664 24.1709ZM25.0033 8.15186C26.3619 8.23126 26.6138 8.35338 27.0445 9.13283C27.6714 10.2186 28 12.3436 28 16.0112C28 19.651 27.6697 21.7877 27.0474 22.8546C26.6153 23.6365 26.3651 23.7583 25.0002 23.8539C23.5319 23.9396 19.676 24 16.0036 24C12.3229 24 8.46503 23.9396 6.98275 23.8529C5.63472 23.7582 5.38091 23.6349 4.95835 22.877C4.33186 21.7847 4.00004 19.636 4.00004 15.9962C4.00004 12.3586 4.33009 10.2218 4.95324 9.12454C5.38237 8.35501 5.63796 8.23135 6.98283 8.15264C8.40681 8.05612 12.059 7.99998 16.0036 7.99998C19.9397 7.99998 23.5902 8.05614 25.0033 8.15186ZM13.3334 12L20 16L13.3334 20V12Z" fill="white"/>
</svg>
